<svg width="40" height="40" viewBox="0 0 40 40" fill="none" xmlns="http://www.w3.org/2000/svg">
<circle cx="20" cy="20" r="19.5" fill="white" stroke="#E5E5E5"/>
<path d="M16.6248 9.95703V11.8737H22.3748V9.95703H24.2915V11.8737H28.1248C28.6541 11.8737 29.0832 12.3028 29.0832 12.832V28.1654C29.0832 28.6947 28.6541 29.1237 28.1248 29.1237H10.8748C10.3456 29.1237 9.9165 28.6947 9.9165 28.1654V12.832C9.9165 12.3028 10.3456 11.8737 10.8748 11.8737H14.7082V9.95703H16.6248ZM27.1665 19.5404H11.8332V27.207H27.1665V19.5404ZM14.7082 13.7904H11.8332V17.6237H27.1665V13.7904H24.2915V15.707H22.3748V13.7904H16.6248V15.707H14.7082V13.7904Z" fill="#E5E5E5"/>
</svg>
