<svg width="84" height="89" viewBox="0 0 84 89" fill="none" xmlns="http://www.w3.org/2000/svg">
<g filter="url(#filter0_d_3441_4388)">
<path fill-rule="evenodd" clip-rule="evenodd" d="M42 10.4141C33.0965 10.4141 25.8788 17.6318 25.8788 26.5353V28.3975C24.245 28.6716 23 30.0926 23 31.8043V35.8881C23 37.6278 24.2861 39.0672 25.9594 39.3074C26.532 45.0402 30.108 49.8884 35.0909 52.2555V57.6183C22.8739 58.4179 13.2122 68.5805 13.2122 80.9998H70.7879C70.7879 68.5805 61.1262 58.4178 48.9091 57.6183V52.2555C53.8921 49.8884 57.4681 45.0402 58.0407 39.3074C59.714 39.0672 61 37.6278 61 35.8881V31.8043C61 30.0926 59.7551 28.6716 58.1213 28.3975V26.5353C58.1213 17.6318 50.9035 10.4141 42 10.4141Z" fill="#D0C6AC"/>
<mask id="mask0_3441_4388" style="mask-type:luminance" maskUnits="userSpaceOnUse" x="13" y="10" width="58" height="71">
<path fill-rule="evenodd" clip-rule="evenodd" d="M42 10.4141C33.0965 10.4141 25.8788 17.6318 25.8788 26.5353V28.3975C24.245 28.6716 23 30.0926 23 31.8043V35.8881C23 37.6278 24.2861 39.0672 25.9594 39.3074C26.532 45.0402 30.108 49.8884 35.0909 52.2555V57.6183C22.8739 58.4179 13.2122 68.5805 13.2122 80.9998H70.7879C70.7879 68.5805 61.1262 58.4178 48.9091 57.6183V52.2555C53.8921 49.8884 57.4681 45.0402 58.0407 39.3074C59.714 39.0672 61 37.6278 61 35.8881V31.8043C61 30.0926 59.7551 28.6716 58.1213 28.3975V26.5353C58.1213 17.6318 50.9035 10.4141 42 10.4141Z" fill="white"/>
</mask>
<g mask="url(#mask0_3441_4388)">
<rect x="4" y="10.4141" width="76" height="70.5857" fill="#D08B5B"/>
<path fill-rule="evenodd" clip-rule="evenodd" d="M25.8789 37.6856V39.9998C25.8789 48.9033 33.0966 56.1211 42.0001 56.1211C50.9036 56.1211 58.1213 48.9033 58.1213 39.9998V37.6855C58.1213 46.589 50.9036 53.8068 42.0001 53.8068C33.0966 53.8068 25.8789 46.5891 25.8789 37.6856Z" fill="black" fill-opacity="0.1"/>
</g>
<path fill-rule="evenodd" clip-rule="evenodd" d="M42 65.6817C46.2928 65.6817 49.7728 62.4438 49.7728 58.4496C49.7728 58.1962 49.7588 57.9459 49.7314 57.6992C61.5558 58.8829 70.7879 68.8627 70.7879 80.9989H13.2122C13.2122 68.8628 22.4443 58.8829 34.2686 57.6992C34.2413 57.9459 34.2273 58.1962 34.2273 58.4496C34.2273 62.4438 37.7073 65.6817 42 65.6817Z" fill="#E6E6E6"/>
<mask id="mask1_3441_4388" style="mask-type:luminance" maskUnits="userSpaceOnUse" x="13" y="57" width="58" height="24">
<path fill-rule="evenodd" clip-rule="evenodd" d="M42 65.6817C46.2928 65.6817 49.7728 62.4438 49.7728 58.4496C49.7728 58.1962 49.7588 57.9459 49.7314 57.6992C61.5558 58.8829 70.7879 68.8627 70.7879 80.9989H13.2122C13.2122 68.8628 22.4443 58.8829 34.2686 57.6992C34.2413 57.9459 34.2273 58.1962 34.2273 58.4496C34.2273 62.4438 37.7073 65.6817 42 65.6817Z" fill="white"/>
</mask>
<g mask="url(#mask1_3441_4388)">
<rect x="4" y="49.1777" width="76" height="31.8214" fill="#262E33"/>
</g>
<path fill-rule="evenodd" clip-rule="evenodd" d="M51.108 80.9981C52.0871 77.5036 52.6516 73.3925 52.6516 68.9928C52.6516 64.9781 52.1815 61.2036 51.3554 57.9186C62.3903 59.8103 70.7879 69.4235 70.7879 80.9981H51.108ZM33.1799 80.9981H13.2122C13.2122 69.3187 21.7625 59.6364 32.945 57.8691C32.1111 61.1657 31.6364 64.9579 31.6364 68.9928C31.6364 73.3925 32.2009 77.5036 33.1799 80.9981Z" fill="#3A4C5A"/>
<path fill-rule="evenodd" clip-rule="evenodd" d="M56.1062 74.0567L57.109 73.3009C58.5551 72.2111 60.553 72.2286 61.9797 73.3437L62.1517 73.4781L56.1062 74.0567Z" fill="#E6E6E6"/>
<path fill-rule="evenodd" clip-rule="evenodd" d="M33.0759 57.2773C31.3486 65.6666 34.5153 80.9988 34.5153 80.9988H29.9092L25.8789 70.5845L27.6062 67.9809L25.8789 66.2452L31.3486 57.5666C31.3486 57.5666 32.2242 57.2929 33.0759 57.2773Z" fill="#2F4351"/>
<path fill-rule="evenodd" clip-rule="evenodd" d="M50.9244 57.2773C52.6516 65.6666 49.485 80.9988 49.485 80.9988H54.091L58.1213 70.5845L56.3941 67.9809L58.1213 66.2452L52.6516 57.5666C52.6516 57.5666 51.7761 57.2929 50.9244 57.2773Z" fill="#2F4351"/>
<path fill-rule="evenodd" clip-rule="evenodd" d="M35.091 55.4082C33.1414 56.738 31.9243 58.6243 31.9243 60.7163C31.9243 62.8572 33.199 64.7827 35.2291 66.1168L36.9394 64.763L38.2576 64.8588L37.9698 63.9473L37.9922 63.9296C36.236 63.0205 35.091 61.5299 35.091 59.8452C35.091 59.8434 35.091 59.8417 35.091 59.8399V55.4082ZM48.9092 59.8452C48.9092 61.5299 47.7641 63.0205 46.008 63.9296L46.0304 63.9473L45.7425 64.8588L47.0608 64.763L48.771 66.1168C50.8011 64.7827 52.0758 62.8572 52.0758 60.7163C52.0758 58.6243 50.8588 56.738 48.9092 55.4082V59.8452Z" fill="#F2F2F2"/>
<path fill-rule="evenodd" clip-rule="evenodd" d="M37.9697 43.1035C37.9697 45.3403 39.7742 47.1535 42 47.1535C44.2259 47.1535 46.0303 45.3403 46.0303 43.1035" fill="black" fill-opacity="0.7"/>
<path fill-rule="evenodd" clip-rule="evenodd" d="M38.5454 37.6074C38.5454 38.8856 40.0921 39.9217 42 39.9217C43.9078 39.9217 45.4545 38.8856 45.4545 37.6074" fill="black" fill-opacity="0.16"/>
<rect width="32.2424" height="12.7286" transform="translate(25.8789 26.0352)" fill="#D08B5B"/>
<path fill-rule="evenodd" clip-rule="evenodd" d="M30.531 34.006C31.0625 35.1049 32.2595 35.8711 33.6508 35.8711C35.0373 35.8711 36.2307 35.1103 36.765 34.0176C36.9238 33.693 36.6979 33.4274 36.47 33.6242C35.7644 34.2338 34.7624 34.6145 33.6508 34.6145C32.5741 34.6145 31.6 34.2572 30.8987 33.6807C30.6423 33.4699 30.3755 33.6846 30.531 34.006Z" fill="black" fill-opacity="0.6"/>
<path fill-rule="evenodd" clip-rule="evenodd" d="M47.228 34.006C47.7596 35.1049 48.9565 35.8711 50.3479 35.8711C51.7343 35.8711 52.9277 35.1103 53.4621 34.0176C53.6208 33.693 53.3949 33.4274 53.1671 33.6242C52.4614 34.2338 51.4594 34.6145 50.3479 34.6145C49.2711 34.6145 48.2971 34.2572 47.5957 33.6807C47.3393 33.4699 47.0725 33.6846 47.228 34.006Z" fill="black" fill-opacity="0.6"/>
<path d="M30.3786 28.6839C31.5056 27.0903 34.5954 26.1967 37.2568 26.8535C37.5656 26.9297 37.8775 26.7399 37.9533 26.4296C38.0291 26.1193 37.8403 25.8059 37.5315 25.7297C34.4406 24.967 30.8628 26.0018 29.44 28.0136C29.2558 28.274 29.3166 28.6352 29.5758 28.8203C29.835 29.0055 30.1944 28.9444 30.3786 28.6839Z" fill="black" fill-opacity="0.6"/>
<path d="M53.6219 28.6839C52.4949 27.0903 49.4051 26.1967 46.7436 26.8535C46.4348 26.9297 46.123 26.7399 46.0472 26.4296C45.9714 26.1193 46.1602 25.8059 46.469 25.7297C49.5599 24.967 53.1377 26.0018 54.5605 28.0136C54.7447 28.274 54.6839 28.6352 54.4247 28.8203C54.1655 29.0055 53.8061 28.9444 53.6219 28.6839Z" fill="black" fill-opacity="0.6"/>
<mask id="mask2_3441_4388" style="mask-type:luminance" maskUnits="userSpaceOnUse" x="4" y="0" width="76" height="81">
<rect x="4" width="76" height="81" fill="white"/>
</mask>
<g mask="url(#mask2_3441_4388)">
<path fill-rule="evenodd" clip-rule="evenodd" d="M42.1437 47.9751C38.8692 48.0844 37.4086 49.6762 36.3086 48.0585C35.4829 46.8443 35.8284 44.8024 36.5998 43.6536C37.6975 42.0187 39.1866 42.8095 40.8516 42.623C41.3044 42.5723 41.7592 42.4444 42.1437 42.2353C42.5282 42.4444 42.9829 42.5723 43.4356 42.623C45.1007 42.8095 46.5897 42.0187 47.6875 43.6536C48.4588 44.8024 48.8043 46.8443 47.9787 48.0585C46.8786 49.6762 45.4181 47.8657 42.1437 47.9751ZM58.0407 28.3496C57.0666 32.4213 56.619 36.5751 55.9127 40.6938C55.7655 41.5523 55.6044 42.4078 55.4333 43.2622C55.3974 43.4416 55.3619 44.1077 55.1881 44.1921C54.6616 44.4479 53.5885 43.0878 53.3016 42.7807C52.5809 42.0095 51.8664 41.2313 50.9887 40.6261C49.2152 39.4033 47.1389 38.6803 44.9784 38.5087C44.0745 38.4368 42.8521 38.5621 42.0002 39.0851C41.1483 38.5621 39.926 38.4368 39.0219 38.5087C36.8614 38.6803 34.7851 39.4033 33.0116 40.6261C32.1339 41.2313 31.4195 42.0095 30.6988 42.7807C30.4118 43.0878 29.3387 44.4479 28.8122 44.1921C28.6384 44.1077 28.6029 43.4416 28.567 43.2622C28.3959 42.4078 28.2348 41.5523 28.0876 40.6938C27.3814 36.5751 26.9338 32.4213 25.9597 28.3496C25.6763 28.3496 25.4276 33.7731 25.396 34.2784C25.2672 36.3307 25.1169 38.3373 25.309 40.3915C25.6402 43.9349 25.9854 48.378 28.6402 51.0839C31.0391 53.5289 34.522 54.04 37.5261 55.5834C37.9129 55.7821 38.426 56.0274 38.9793 56.2284C39.5621 56.6806 40.7181 56.9889 42.0497 56.9889C43.4465 56.9889 44.65 56.6497 45.2014 56.1609C45.6852 55.9743 46.1299 55.7603 46.4742 55.5834C49.4781 54.0397 52.9612 53.5289 55.3601 51.0839C58.015 48.378 58.3602 43.9349 58.6914 40.3915C58.8834 38.3373 58.7331 36.3307 58.6044 34.2784C58.5727 33.7731 58.324 28.3496 58.0407 28.3496Z" fill="#252E32"/>
<mask id="mask3_3441_4388" style="mask-type:luminance" maskUnits="userSpaceOnUse" x="25" y="28" width="34" height="29">
<path fill-rule="evenodd" clip-rule="evenodd" d="M42.1437 47.9751C38.8692 48.0844 37.4086 49.6762 36.3086 48.0585C35.4829 46.8443 35.8284 44.8024 36.5998 43.6536C37.6975 42.0187 39.1866 42.8095 40.8516 42.623C41.3044 42.5723 41.7592 42.4444 42.1437 42.2353C42.5282 42.4444 42.9829 42.5723 43.4356 42.623C45.1007 42.8095 46.5897 42.0187 47.6875 43.6536C48.4588 44.8024 48.8043 46.8443 47.9787 48.0585C46.8786 49.6762 45.4181 47.8657 42.1437 47.9751ZM58.0407 28.3496C57.0666 32.4213 56.619 36.5751 55.9127 40.6938C55.7655 41.5523 55.6044 42.4078 55.4333 43.2622C55.3974 43.4416 55.3619 44.1077 55.1881 44.1921C54.6616 44.4479 53.5885 43.0878 53.3016 42.7807C52.5809 42.0095 51.8664 41.2313 50.9887 40.6261C49.2152 39.4033 47.1389 38.6803 44.9784 38.5087C44.0745 38.4368 42.8521 38.5621 42.0002 39.0851C41.1483 38.5621 39.926 38.4368 39.0219 38.5087C36.8614 38.6803 34.7851 39.4033 33.0116 40.6261C32.1339 41.2313 31.4195 42.0095 30.6988 42.7807C30.4118 43.0878 29.3387 44.4479 28.8122 44.1921C28.6384 44.1077 28.6029 43.4416 28.567 43.2622C28.3959 42.4078 28.2348 41.5523 28.0876 40.6938C27.3814 36.5751 26.9338 32.4213 25.9597 28.3496C25.6763 28.3496 25.4276 33.7731 25.396 34.2784C25.2672 36.3307 25.1169 38.3373 25.309 40.3915C25.6402 43.9349 25.9854 48.378 28.6402 51.0839C31.0391 53.5289 34.522 54.04 37.5261 55.5834C37.9129 55.7821 38.426 56.0274 38.9793 56.2284C39.5621 56.6806 40.7181 56.9889 42.0497 56.9889C43.4465 56.9889 44.65 56.6497 45.2014 56.1609C45.6852 55.9743 46.1299 55.7603 46.4742 55.5834C49.4781 54.0397 52.9612 53.5289 55.3601 51.0839C58.015 48.378 58.3602 43.9349 58.6914 40.3915C58.8834 38.3373 58.7331 36.3307 58.6044 34.2784C58.5727 33.7731 58.324 28.3496 58.0407 28.3496Z" fill="white"/>
</mask>
<g mask="url(#mask3_3441_4388)">
<rect x="18.1062" y="20.8281" width="47.7879" height="43.9714" fill="#724133"/>
</g>
<path fill-rule="evenodd" clip-rule="evenodd" d="M58.5445 28.2044C58.8327 27.5073 58.9851 26.781 58.9851 26.0347C58.9851 20.7624 51.3807 16.4883 42.0002 16.4883C32.6198 16.4883 25.0154 20.7624 25.0154 26.0347C25.0154 26.781 25.1678 27.5073 25.456 28.2044C27.2038 23.9773 33.9476 20.8276 42.0002 20.8276C50.0529 20.8276 56.7967 23.9773 58.5445 28.2044Z" fill="#EDECE3"/>
<path fill-rule="evenodd" clip-rule="evenodd" d="M17.8184 27.2858C17.7992 38.6186 26.1669 40.7886 26.1669 40.7886C24.6001 26.4539 32.9424 21.9413 39.5615 18.3607C40.408 17.9029 41.2262 17.4602 41.992 17.0143C42.7606 17.4625 43.5826 17.9073 44.4332 18.3676C51.0479 21.947 59.3933 26.463 57.8335 40.7886C57.8335 40.7886 66.201 38.3413 66.182 27.2858C66.1584 13.6387 51.1693 0.867188 42.5759 0.867188C42.3819 0.867188 42.189 0.87576 41.9978 0.892664C41.8081 0.87576 41.6168 0.867188 41.4245 0.867188C32.8093 0.867188 17.8415 13.6387 17.8184 27.2858Z" fill="#124C74"/>
<mask id="mask4_3441_4388" style="mask-type:luminance" maskUnits="userSpaceOnUse" x="17" y="0" width="50" height="41">
<path fill-rule="evenodd" clip-rule="evenodd" d="M17.8184 27.2858C17.7992 38.6186 26.1669 40.7886 26.1669 40.7886C24.6001 26.4539 32.9424 21.9413 39.5615 18.3607C40.408 17.9029 41.2262 17.4602 41.992 17.0143C42.7606 17.4625 43.5826 17.9073 44.4332 18.3676C51.0479 21.947 59.3933 26.463 57.8335 40.7886C57.8335 40.7886 66.201 38.3413 66.182 27.2858C66.1584 13.6387 51.1693 0.867188 42.5759 0.867188C42.3819 0.867188 42.189 0.87576 41.9978 0.892664C41.8081 0.87576 41.6168 0.867188 41.4245 0.867188C32.8093 0.867188 17.8415 13.6387 17.8184 27.2858Z" fill="white"/>
</mask>
<g mask="url(#mask4_3441_4388)">
<rect x="4.00024" width="76" height="81" fill="#25557C"/>
</g>
<path fill-rule="evenodd" clip-rule="evenodd" d="M17.8222 27.7408C18.0245 38.6762 26.1669 40.7878 26.1669 40.7878C26.1669 40.7878 17.7992 38.7436 17.8184 28.0677C17.8186 27.9587 17.8199 27.8497 17.8222 27.7408ZM25.9751 37.513C26.0181 26.5615 33.5099 22.7438 39.5615 19.6601C42.7296 18.0457 45.503 16.6324 46.6063 14.5021C47.7941 12.4057 48.1579 10.4693 47.9436 8.8125C47.7984 10.0758 47.3748 11.4446 46.6063 12.8845C45.503 15.1459 42.7296 16.6462 39.5615 18.3599C33.4751 21.6523 25.9318 25.7327 25.9751 37.513Z" fill="black" fill-opacity="0.16"/>
</g>
</g>
<defs>
<filter id="filter0_d_3441_4388" x="0" y="0" width="84" height="89" filterUnits="userSpaceOnUse" color-interpolation-filters="sRGB">
<feFlood flood-opacity="0" result="BackgroundImageFix"/>
<feColorMatrix in="SourceAlpha" type="matrix" values="0 0 0 0 0 0 0 0 0 0 0 0 0 0 0 0 0 0 127 0" result="hardAlpha"/>
<feOffset dy="4"/>
<feGaussianBlur stdDeviation="2"/>
<feComposite in2="hardAlpha" operator="out"/>
<feColorMatrix type="matrix" values="0 0 0 0 0 0 0 0 0 0 0 0 0 0 0 0 0 0 0.25 0"/>
<feBlend mode="normal" in2="BackgroundImageFix" result="effect1_dropShadow_3441_4388"/>
<feBlend mode="normal" in="SourceGraphic" in2="effect1_dropShadow_3441_4388" result="shape"/>
</filter>
</defs>
</svg>
