<svg width="14" height="14" viewBox="0 0 14 14" fill="none" xmlns="http://www.w3.org/2000/svg">
<g clip-path="url(#clip0_3236_21317)">
<path fill-rule="evenodd" clip-rule="evenodd" d="M4.48275 2.47248C4.26068 2.47248 4.08045 2.65271 4.08045 2.87478C4.08045 3.09725 4.26068 3.27707 4.48275 3.27707C4.70482 3.27707 4.88505 3.09725 4.88505 2.87478C4.88505 2.65271 4.70482 2.47248 4.48275 2.47248ZM6.09195 2.47248C5.86988 2.47248 5.68965 2.65271 5.68965 2.87478C5.68965 3.09725 5.86988 3.27707 6.09195 3.27707C6.31401 3.27707 6.49424 3.09725 6.49424 2.87478C6.49424 2.65271 6.31401 2.47248 6.09195 2.47248ZM12.931 4.08167H1.66666V2.47248C1.66666 2.02834 2.02712 1.66788 2.47126 1.66788H12.1264C12.5706 1.66788 12.931 2.02834 12.931 2.47248V4.08167ZM12.931 12.1276C12.931 12.5718 12.5706 12.9322 12.1264 12.9322H2.47126C2.02712 12.9322 1.66666 12.5718 1.66666 12.1276V4.88627H12.931V12.1276ZM12.1264 0.863281H2.47126C1.58258 0.863281 0.862061 1.5838 0.862061 2.47248V12.1276C0.862061 13.0163 1.58258 13.7368 2.47126 13.7368H12.1264C13.0151 13.7368 13.7356 13.0163 13.7356 12.1276V2.47248C13.7356 1.5838 13.0151 0.863281 12.1264 0.863281ZM2.87355 2.47248C2.65149 2.47248 2.47126 2.65271 2.47126 2.87478C2.47126 3.09725 2.65149 3.27707 2.87355 3.27707C3.09562 3.27707 3.27585 3.09725 3.27585 2.87478C3.27585 2.65271 3.09562 2.47248 2.87355 2.47248Z" fill="black"/>
</g>
<defs>
<clipPath id="clip0_3236_21317">
<rect width="12.8736" height="12.8736" fill="white" transform="translate(0.862061 0.863281)"/>
</clipPath>
</defs>
</svg>
