<svg width="51" height="35" viewBox="0 0 51 35" fill="none" xmlns="http://www.w3.org/2000/svg">
<path d="M7.90942 10.5586L14.6121 28.578H34.9172L42.9998 10.5586L25.4547 21.8355L7.90942 10.5586Z" fill="#24A9E7"/>
<path d="M27.4319 1.53172C26.2089 0.822761 24.7003 0.822761 23.4773 1.53172L7.90942 10.5566L25.4547 21.8335L42.9998 10.5566L27.4319 1.53172Z" fill="url(#paint0_radial_4127_5213)"/>
<g filter="url(#filter0_d_4127_5213)">
<path d="M38.2686 10.6367H12.6408C11.5521 10.6367 10.6694 11.5195 10.6694 12.6081V22.8592C10.6694 23.9481 11.5521 24.8306 12.6408 24.8306H38.2686C39.3572 24.8306 40.2399 23.9481 40.2399 22.8592V12.6081C40.2399 11.5195 39.3572 10.6367 38.2686 10.6367Z" fill="url(#paint1_radial_4127_5213)"/>
</g>
<path fill-rule="evenodd" clip-rule="evenodd" d="M42.9998 31.1408C42.9998 32.2297 42.1171 33.1121 41.0285 33.1121H9.88079C8.79204 33.1121 7.90942 32.2297 7.90942 31.1408V10.5586L25.0098 21.5495C25.3011 21.7369 25.6368 21.8439 25.9828 21.8603L41.1215 22.5753C42.1731 22.6249 42.9998 23.4917 42.9998 24.5443V31.1408Z" fill="url(#paint2_radial_4127_5213)"/>
<path d="M41.4811 32.1364C42.1372 32.5577 42.9999 32.0867 42.9999 31.3071V10.5586L25.4548 21.8355L41.4811 32.1364Z" fill="url(#paint3_radial_4127_5213)"/>
<defs>
<filter id="filter0_d_4127_5213" x="0.669434" y="0.636719" width="49.5706" height="34.1953" filterUnits="userSpaceOnUse" color-interpolation-filters="sRGB">
<feFlood flood-opacity="0" result="BackgroundImageFix"/>
<feColorMatrix in="SourceAlpha" type="matrix" values="0 0 0 0 0 0 0 0 0 0 0 0 0 0 0 0 0 0 127 0" result="hardAlpha"/>
<feOffset/>
<feGaussianBlur stdDeviation="5"/>
<feComposite in2="hardAlpha" operator="out"/>
<feColorMatrix type="matrix" values="0 0 0 0 0 0 0 0 0 0 0 0 0 0 0 0 0 0 0.25 0"/>
<feBlend mode="normal" in2="BackgroundImageFix" result="effect1_dropShadow_4127_5213"/>
<feBlend mode="normal" in="SourceGraphic" in2="effect1_dropShadow_4127_5213" result="shape"/>
</filter>
<radialGradient id="paint0_radial_4127_5213" cx="0" cy="0" r="1" gradientUnits="userSpaceOnUse" gradientTransform="translate(25.2575 17.8771) rotate(90) scale(17.8314 22.1957)">
<stop stop-color="#0E4F97"/>
<stop offset="1" stop-color="#0868B5"/>
</radialGradient>
<radialGradient id="paint1_radial_4127_5213" cx="0" cy="0" r="1" gradientUnits="userSpaceOnUse" gradientTransform="translate(25.2576 24.8306) rotate(-90) scale(14.1939 29.5706)">
<stop stop-color="#C0C0C0"/>
<stop offset="1" stop-color="#F1F2F3"/>
</radialGradient>
<radialGradient id="paint2_radial_4127_5213" cx="0" cy="0" r="1" gradientUnits="userSpaceOnUse" gradientTransform="translate(41.8169 33.1121) rotate(-154.612) scale(38.6232 41.4154)">
<stop stop-color="#0987DD"/>
<stop offset="1" stop-color="#29AEE9"/>
</radialGradient>
<radialGradient id="paint3_radial_4127_5213" cx="0" cy="0" r="1" gradientUnits="userSpaceOnUse" gradientTransform="translate(42.4085 31.9292) rotate(-122.137) scale(18.1591 28.2531)">
<stop stop-color="#16A2DF"/>
<stop offset="1" stop-color="#45CAEE"/>
</radialGradient>
</defs>
</svg>
