<svg width="179" height="32" viewBox="0 0 179 32" fill="none" xmlns="http://www.w3.org/2000/svg">
<path d="M37.4762 5.36287C36.8612 5.97304 36.1014 6.27684 35.1993 6.27684C34.2972 6.27684 33.5374 5.97304 32.9224 5.36287C32.3075 4.75269 32 4.01121 32 3.13842C32 2.25019 32.3075 1.50613 32.9224 0.90368C33.5374 0.301227 34.2972 0 35.1993 0C36.1014 0 36.8612 0.301227 37.4762 0.90368C38.0911 1.50613 38.3986 2.25276 38.3986 3.13842C38.3986 4.01121 38.0911 4.75269 37.4762 5.36287ZM32.2008 31.0212V8.73043H38.1928V31.0212H32.2008Z" fill="#043A08"/>
<path d="M42.1772 31.0217V8.73091H47.966V12.7035H48.0905C48.6928 11.2901 49.572 10.2062 50.7282 9.44922C51.8844 8.69487 53.2973 8.31641 54.9669 8.31641C57.4013 8.31641 59.2843 9.05016 60.6108 10.5203C61.9372 11.9903 62.6005 14.0346 62.6005 16.6555V31.0243H56.6034V17.9222C56.6034 16.4521 56.2603 15.3219 55.5767 14.5315C54.8932 13.7411 53.8869 13.3471 52.5604 13.3471C51.2339 13.3471 50.1692 13.7977 49.3687 14.6988C48.5682 15.5999 48.1667 16.7791 48.1667 18.2337V31.0217H42.1772Z" fill="#043A08"/>
<path d="M66.0236 15.2806C66.0236 13.1591 66.8647 11.4573 68.547 10.1752C70.2292 8.89302 72.4807 8.25195 75.2988 8.25195C78.0483 8.25195 80.2591 8.90332 81.9287 10.2061C83.5982 11.5088 84.452 13.2415 84.4952 15.4042H78.9733C78.9047 14.5031 78.5388 13.795 77.8755 13.2827C77.2123 12.7704 76.3254 12.5129 75.2175 12.5129C74.1782 12.5129 73.3472 12.7317 72.7246 13.1668C72.102 13.6045 71.792 14.1812 71.792 14.9021C71.792 15.9834 72.75 16.7532 74.6661 17.2089L78.8742 18.1229C81.0774 18.6224 82.6605 19.3458 83.6262 20.2959C84.5918 21.2459 85.0721 22.5512 85.0721 24.2144C85.0721 26.4054 84.17 28.1664 82.3632 29.4949C80.5564 30.8234 78.1982 31.4902 75.2835 31.4902C72.3816 31.4902 70.064 30.8388 68.3259 29.5361C66.5877 28.2333 65.6373 26.48 65.4722 24.2762H71.3219C71.4718 25.2185 71.8987 25.9471 72.6052 26.4594C73.3091 26.9718 74.2569 27.2292 75.4487 27.2292C76.5846 27.2292 77.4766 27.0181 78.1271 26.5959C78.7776 26.1737 79.1029 25.5944 79.1029 24.8606C79.1029 24.2916 78.8971 23.8385 78.4879 23.4987C78.0788 23.1588 77.38 22.8705 76.394 22.6362L72.3307 21.7222C68.1251 20.7567 66.0236 18.6095 66.0236 15.2806Z" fill="#043A08"/>
<path d="M89.6486 3.59375H95.6407V8.73005H99.704V13.3051H95.6407V23.9716C95.6407 25.6502 96.5021 26.487 98.2276 26.487C98.7892 26.487 99.2745 26.4535 99.6837 26.384V30.8535C98.9848 31.0208 98.0344 31.1032 96.8299 31.1032C94.243 31.1032 92.4007 30.6321 91.2979 29.6898C90.1975 28.7475 89.6461 27.1873 89.6461 25.0117V13.3051H86.5459V8.73005H89.6461V3.59375H89.6486Z" fill="#043A08"/>
<path d="M109.309 31.3757C107.187 31.3757 105.431 30.7449 104.034 29.4833C102.639 28.2218 101.94 26.5998 101.94 24.6174C101.94 22.5937 102.679 21.0052 104.156 19.8544C105.635 18.7035 107.746 18.0444 110.499 17.8797L116.041 17.5475V16.0723C116.041 15.0476 115.708 14.2418 115.045 13.6599C114.381 13.0781 113.482 12.7871 112.346 12.7871C111.251 12.7871 110.359 13.0369 109.668 13.5363C108.976 14.0358 108.555 14.7078 108.405 15.5522H102.926C103.035 13.3613 103.958 11.5977 105.696 10.2615C107.434 8.92268 109.739 8.25586 112.613 8.25586C115.431 8.25586 117.69 8.93555 119.385 10.2949C121.082 11.6543 121.931 13.4565 121.931 15.7016V31.0255H116.142V27.6142H116.02C115.418 28.7779 114.501 29.697 113.271 30.369C112.038 31.0384 110.717 31.3757 109.309 31.3757ZM111.279 26.986C112.605 26.986 113.731 26.5946 114.656 25.812C115.581 25.0293 116.041 24.0407 116.041 22.8486V21.2266L111.403 21.5176C110.28 21.5999 109.416 21.8857 108.806 22.3697C108.196 22.8563 107.894 23.4923 107.894 24.2827C107.894 25.1143 108.201 25.7734 108.816 26.2574C109.431 26.744 110.252 26.986 111.279 26.986Z" fill="#043A08"/>
<path d="M125.789 31.0217V8.73091H131.578V12.7035H131.702C132.304 11.2901 133.184 10.2062 134.34 9.44922C135.496 8.69487 136.909 8.31641 138.578 8.31641C141.013 8.31641 142.896 9.05016 144.222 10.5203C145.549 11.9903 146.212 14.0346 146.212 16.6555V31.0243H140.22V17.9222C140.22 16.4521 139.877 15.3219 139.193 14.5315C138.51 13.7411 137.504 13.3471 136.177 13.3471C134.851 13.3471 133.786 13.7977 132.985 14.6988C132.185 15.5999 131.783 16.7791 131.783 18.2337V31.0217H125.789Z" fill="#043A08"/>
<path d="M170.018 8.73047L162.465 31.0212H155.693L148.08 8.73047H154.504L159.08 25.6558H159.205L163.761 8.73047H170.018Z" fill="#043A08"/>
<path d="M177.468 5.36287C176.853 5.97304 176.093 6.27684 175.191 6.27684C174.289 6.27684 173.529 5.97304 172.914 5.36287C172.299 4.75269 171.992 4.01121 171.992 3.13842C171.992 2.25019 172.299 1.50613 172.914 0.90368C173.529 0.301227 174.289 0 175.191 0C176.093 0 176.853 0.301227 177.468 0.90368C178.083 1.50613 178.391 2.25276 178.391 3.13842C178.393 4.01121 178.083 4.75269 177.468 5.36287ZM172.193 31.0212V8.73043H178.185V31.0212H172.193Z" fill="#043A08"/>
<path d="M12.7846 6.02344C7.38213 6.02344 2.9834 10.48 2.9834 15.9536C2.9834 21.4298 7.38213 25.8838 12.7846 25.8838C14.0959 25.8838 15.3486 25.6212 16.4922 25.1475L16.083 23.2088C15.0793 23.68 13.9612 23.9426 12.7846 23.9426C8.43671 23.9426 4.89943 20.3587 4.89943 15.9536C4.89943 11.5485 8.43671 7.96468 12.7846 7.96468C17.1325 7.96468 20.6724 11.5485 20.6724 15.9536C20.6724 17.1946 20.3903 18.3712 19.8897 19.4216L21.5948 20.3072C22.2301 18.9916 22.5884 17.5138 22.5884 15.9536C22.5884 10.48 18.1896 6.02344 12.7846 6.02344Z" fill="#237804"/>
<path d="M12.7845 3C5.73538 3 0 8.81084 0 15.9528C0 23.0972 5.73538 28.9055 12.7845 28.9055C14.3067 28.9055 15.7704 28.6352 17.1248 28.1357L16.7182 26.2176C15.4959 26.6991 14.172 26.9643 12.7845 26.9643C6.7925 26.9643 1.91603 22.0262 1.91603 15.9528C1.91603 9.88187 6.7925 4.94124 12.7845 4.94124C18.7766 4.94124 23.6556 9.88187 23.6556 15.9528C23.6556 17.6906 23.2566 19.3358 22.5426 20.8007L24.2477 21.6864C25.0964 19.9562 25.5716 18.0098 25.5716 15.9528C25.5716 8.81084 19.8337 3 12.7845 3Z" fill="#52C41A"/>
<path d="M12.7845 10.0605C9.57754 10.0605 6.96777 12.7046 6.96777 15.9538C6.96777 19.2029 9.57754 21.8496 12.7845 21.8496C13.8187 21.8496 14.792 21.5741 15.6331 21.0927L15.2697 19.3754C15.1655 18.894 15.3485 18.3945 15.7322 18.0958C15.9507 17.9182 16.2252 17.8229 16.5073 17.8229C16.7055 17.8229 16.9011 17.8693 17.079 17.9594L18.0472 18.4614C18.403 17.7019 18.6012 16.8497 18.6012 15.9538C18.6012 12.7046 15.9939 10.0605 12.7845 10.0605ZM14.1796 16.8549C14.3371 17.0145 14.3371 17.2797 14.1796 17.4419C14.0169 17.6041 13.7577 17.6041 13.5976 17.4419L12.6295 16.461L11.6613 17.4419C11.5012 17.6041 11.242 17.6041 11.0794 17.4419C10.9218 17.2797 10.9218 17.0145 11.0794 16.8549L12.0501 15.874L11.0794 14.8905C10.9218 14.7308 10.9218 14.4682 11.0794 14.3035C11.242 14.1438 11.5012 14.1438 11.6613 14.3035L12.6295 15.2844L13.5976 14.3035C13.7577 14.1438 14.0169 14.1438 14.1796 14.3035C14.3371 14.4682 14.3371 14.7308 14.1796 14.8905L13.2088 15.874L14.1796 16.8549Z" fill="#043A08"/>
<path d="M26.4025 24.112C26.3822 24.2716 26.2704 24.3978 26.1103 24.4338L21.4778 25.4405L21.1525 25.5126L21.0203 25.855L19.2314 30.4403C19.1856 30.5588 19.0815 30.6437 18.9569 30.672C18.9264 30.6772 18.8883 30.6798 18.8502 30.6798C18.685 30.6617 18.5427 30.5433 18.5097 30.3785L17.9633 27.7962L17.5491 25.8473L17.3179 24.7556L16.8986 22.7681L16.4259 20.5462L16.1388 19.1868C16.1083 19.0452 16.1617 18.8933 16.2811 18.8058C16.3929 18.7105 16.5505 18.6976 16.6801 18.7646L17.6076 19.246L19.4575 20.2089L21.1677 21.0997L22.1156 21.5915L23.8232 22.4797L26.2043 23.7181C26.3441 23.7979 26.4305 23.9498 26.4025 24.112Z" fill="#043A08"/>
</svg>
