<svg width="15" height="15" viewBox="0 0 15 15" fill="none" xmlns="http://www.w3.org/2000/svg">
<path d="M7.50071 0.416016C11.4127 0.416016 14.584 3.58733 14.584 7.49935C14.584 11.4113 11.4127 14.5827 7.50071 14.5827C6.20169 14.5827 4.98436 14.233 3.93769 13.6227L0.420319 14.5827L1.37796 11.0633C0.767247 10.0165 0.417358 8.79879 0.417358 7.49935C0.417358 3.58733 3.58867 0.416016 7.50071 0.416016ZM4.94456 4.17608C4.85291 4.18252 4.76305 4.20491 4.68123 4.24676C4.61986 4.27816 4.56288 4.32354 4.47335 4.40808C4.38881 4.48791 4.33982 4.55762 4.2882 4.62483C4.02632 4.96578 3.88558 5.3843 3.88819 5.81421C3.88962 6.16173 3.97989 6.49947 4.12244 6.81482C4.41154 7.4543 4.88829 8.13033 5.51804 8.75728C5.66931 8.90787 5.81751 9.06009 5.97732 9.20077C6.75894 9.88898 7.6904 10.3852 8.69758 10.6502C8.69758 10.6502 9.09424 10.7111 9.10005 10.7114C9.23145 10.7185 9.36263 10.709 9.49417 10.7023C9.70051 10.6917 9.90196 10.6358 10.0843 10.5387C10.2015 10.4763 10.257 10.4453 10.3554 10.3833C10.3554 10.3833 10.3855 10.3629 10.4438 10.3195C10.5394 10.2482 10.5985 10.1981 10.678 10.1155C10.7367 10.0546 10.7871 9.98263 10.826 9.90152C10.8814 9.78592 10.9372 9.56527 10.9594 9.38203C10.9763 9.24206 10.9712 9.16556 10.9693 9.11817C10.9663 9.04196 10.9033 8.96354 10.8343 8.93025L10.4224 8.7451C10.4224 8.7451 9.80654 8.47706 9.42985 8.30522C9.39061 8.2873 9.34768 8.27901 9.30455 8.27639C9.21006 8.27058 9.10416 8.29523 9.0368 8.36621C9.03326 8.36479 8.98637 8.40531 8.47389 9.02616C8.44562 9.05995 8.37939 9.1334 8.26486 9.12653C8.24757 9.12533 8.23036 9.12285 8.21357 9.11846C8.16718 9.1062 8.12199 9.09005 8.07779 9.07135C7.99016 9.03417 7.95942 9.02007 7.89957 8.99429C7.49065 8.81565 7.11537 8.57665 6.78366 8.28418C6.69469 8.20584 6.61196 8.12148 6.52668 8.03882C6.22904 7.75031 5.98536 7.44346 5.80409 7.14079C5.79419 7.12429 5.77894 7.10042 5.76251 7.07371C5.73285 7.02547 5.70014 6.9681 5.68989 6.92872C5.66356 6.82452 5.73341 6.7408 5.73341 6.7408C5.73341 6.7408 5.90582 6.55231 5.98592 6.44981C6.06299 6.35114 6.12951 6.25467 6.17187 6.18589C6.25531 6.05175 6.28174 5.91312 6.23789 5.80617C6.03916 5.32168 5.83413 4.83981 5.62282 4.36068C5.58111 4.26613 5.45706 4.19742 5.34425 4.1844C5.30604 4.17999 5.26786 4.17555 5.2295 4.17303C5.13454 4.1684 5.03939 4.16942 4.94456 4.17608Z" fill="#0CAF60"/>
</svg>
