<svg width="77" height="82" viewBox="0 0 77 82" fill="none" xmlns="http://www.w3.org/2000/svg">
<path fill-rule="evenodd" clip-rule="evenodd" d="M38.4999 10.543C29.4793 10.543 22.1666 17.8556 22.1666 26.8763V28.7485C20.5113 29.0262 19.2499 30.4659 19.2499 32.2001V36.3287C19.2499 38.0917 20.5535 39.5503 22.2494 39.7932C22.8333 45.5962 26.4548 50.5031 31.4999 52.8997V58.3288C19.1237 59.1296 9.33325 69.4215 9.33325 82.0001H67.6666C67.6666 69.4215 57.8762 59.1296 45.4999 58.3288V52.8997C50.545 50.5031 54.1665 45.5962 54.7504 39.7932C56.4463 39.5503 57.7499 38.0917 57.7499 36.3287V32.2001C57.7499 30.4659 56.4886 29.0262 54.8333 28.7485V26.8763C54.8333 17.8557 47.5206 10.543 38.4999 10.543Z" fill="#D0C6AC"/>
<mask id="mask0_3441_4171" style="mask-type:luminance" maskUnits="userSpaceOnUse" x="9" y="10" width="59" height="72">
<path fill-rule="evenodd" clip-rule="evenodd" d="M38.4999 10.543C29.4793 10.543 22.1666 17.8556 22.1666 26.8763V28.7485C20.5113 29.0262 19.2499 30.4659 19.2499 32.2001V36.3287C19.2499 38.0917 20.5535 39.5503 22.2494 39.7932C22.8333 45.5962 26.4548 50.5031 31.4999 52.8997V58.3288C19.1237 59.1296 9.33325 69.4215 9.33325 82.0001H67.6666C67.6666 69.4215 57.8762 59.1296 45.4999 58.3288V52.8997C50.545 50.5031 54.1665 45.5962 54.7504 39.7932C56.4463 39.5503 57.7499 38.0917 57.7499 36.3287V32.2001C57.7499 30.4659 56.4886 29.0262 54.8333 28.7485V26.8763C54.8333 17.8557 47.5206 10.543 38.4999 10.543Z" fill="white"/>
</mask>
<g mask="url(#mask0_3441_4171)">
<rect y="10.543" width="77" height="71.4571" fill="#AE5D29"/>
<path fill-rule="evenodd" clip-rule="evenodd" d="M22.1665 38.1387V40.4815C22.1665 49.5022 29.4792 56.8149 38.4998 56.8149C47.5205 56.8149 54.8332 49.5022 54.8332 40.4815V38.1387C54.8332 47.1593 47.5205 54.472 38.4998 54.472C29.4792 54.472 22.1665 47.1593 22.1665 38.1387Z" fill="black" fill-opacity="0.1"/>
</g>
<path fill-rule="evenodd" clip-rule="evenodd" d="M31.4999 54.0879C26.3239 55.3223 22.6463 57.8833 22.2101 60.8957C14.5631 64.8333 9.33325 72.8053 9.33325 81.9988H67.6666C67.6666 72.8053 62.4367 64.8333 54.7897 60.8957C54.3535 57.8833 50.6759 55.3223 45.4999 54.0879V59.1845C45.4999 63.0505 42.3659 66.1845 38.4999 66.1845C34.6339 66.1845 31.4999 63.0505 31.4999 59.1845V54.0879Z" fill="#B7C1DB"/>
<mask id="mask1_3441_4171" style="mask-type:luminance" maskUnits="userSpaceOnUse" x="9" y="54" width="59" height="28">
<path fill-rule="evenodd" clip-rule="evenodd" d="M31.4999 54.0879C26.3239 55.3223 22.6463 57.8833 22.2101 60.8957C14.5631 64.8333 9.33325 72.8053 9.33325 81.9988H67.6666C67.6666 72.8053 62.4367 64.8333 54.7897 60.8957C54.3535 57.8833 50.6759 55.3223 45.4999 54.0879V59.1845C45.4999 63.0505 42.3659 66.1845 38.4999 66.1845C34.6339 66.1845 31.4999 63.0505 31.4999 59.1845V54.0879Z" fill="white"/>
</mask>
<g mask="url(#mask1_3441_4171)">
<rect y="49.7852" width="77" height="32.2143" fill="#65C9FF"/>
<path fill-rule="evenodd" clip-rule="evenodd" d="M29.7499 68.3328C29.029 68.0863 28.3465 67.8102 27.7083 67.5078V81.9985H29.7499V68.3328ZM47.2499 68.3328C47.9708 68.0863 48.6533 67.8102 49.2916 67.5078V78.6348C49.2916 79.1986 48.8345 79.6556 48.2708 79.6556C47.707 79.6556 47.2499 79.1986 47.2499 78.6348V68.3328Z" fill="#F4F4F4"/>
<path fill-rule="evenodd" clip-rule="evenodd" d="M38.5001 69.6998C47.5207 69.6998 54.8334 65.7663 54.8334 60.9141C54.8334 58.0256 52.2421 55.4627 48.2416 53.8613C54.015 55.3325 57.8959 58.0712 57.8959 61.2069C57.8959 65.8974 49.2121 69.6998 38.5001 69.6998ZM28.7585 53.8613C24.7581 55.4627 22.1667 58.0256 22.1667 60.9141C22.1667 65.7663 29.4794 69.6998 38.5001 69.6998C27.7881 69.6998 19.1042 65.8974 19.1042 61.2069C19.1042 58.0712 22.9852 55.3325 28.7585 53.8613Z" fill="black" fill-opacity="0.16"/>
</g>
<rect width="31.5" height="12.8857" transform="translate(22.75 39.2422)" fill="#D08B5B"/>
<path d="M34.4167 43.9275C34.4167 45.5007 36.2129 46.5632 38.5001 46.5632C40.7873 46.5632 42.5834 45.5007 42.5834 43.9275C42.5834 43.604 42.3064 43.3418 42.0001 43.3418C41.623 43.3418 41.4547 43.6069 41.4167 43.9275C41.0544 44.7879 40.1577 45.3087 38.5001 45.3918C36.8425 45.3087 35.9458 44.7879 35.5834 43.9275C35.5454 43.6069 35.3771 43.3418 35.0001 43.3418C34.6937 43.3418 34.4167 43.604 34.4167 43.9275Z" fill="black" fill-opacity="0.6"/>
<path fill-rule="evenodd" clip-rule="evenodd" d="M35.0002 38.0723C35.0002 39.3662 36.5672 40.4151 38.5002 40.4151C40.4332 40.4151 42.0002 39.3662 42.0002 38.0723" fill="black" fill-opacity="0.16"/>
<rect width="32.6667" height="12.8857" transform="translate(22.1667 26.3574)" fill="#D08B5B"/>
<path fill-rule="evenodd" clip-rule="evenodd" d="M26.8802 34.4263C27.4188 35.5388 28.6315 36.3145 30.0411 36.3145C31.4458 36.3145 32.6549 35.5443 33.1963 34.4381C33.3571 34.1095 33.1283 33.8405 32.8974 34.0398C32.1825 34.6569 31.1673 35.0423 30.0411 35.0423C28.9502 35.0423 27.9633 34.6807 27.2528 34.097C26.993 33.8837 26.7227 34.1009 26.8802 34.4263Z" fill="black" fill-opacity="0.6"/>
<path fill-rule="evenodd" clip-rule="evenodd" d="M43.7967 34.4263C44.3353 35.5388 45.548 36.3145 46.9576 36.3145C48.3623 36.3145 49.5714 35.5443 50.1128 34.4381C50.2736 34.1095 50.0448 33.8405 49.8139 34.0398C49.099 34.6569 48.0838 35.0423 46.9576 35.0423C45.8667 35.0423 44.8798 34.6807 44.1693 34.097C43.9095 33.8837 43.6392 34.1009 43.7967 34.4263Z" fill="black" fill-opacity="0.6"/>
<path d="M26.7256 29.0379C27.8675 27.4247 30.9979 26.52 33.6943 27.1849C34.0072 27.262 34.3231 27.0699 34.4 26.7558C34.4768 26.4416 34.2854 26.1244 33.9726 26.0473C30.8411 25.2751 27.2162 26.3227 25.7746 28.3593C25.588 28.623 25.6496 28.9887 25.9122 29.1761C26.1748 29.3634 26.539 29.3016 26.7256 29.0379Z" fill="black" fill-opacity="0.6"/>
<path d="M50.2746 29.0379C49.1328 27.4247 46.0024 26.52 43.3059 27.1849C42.993 27.262 42.6771 27.0699 42.6003 26.7558C42.5234 26.4416 42.7148 26.1244 43.0277 26.0473C46.1592 25.2751 49.7841 26.3227 51.2256 28.3593C51.4122 28.623 51.3506 28.9887 51.088 29.1761C50.8254 29.3634 50.4613 29.3016 50.2746 29.0379Z" fill="black" fill-opacity="0.6"/>
<mask id="mask2_3441_4171" style="mask-type:luminance" maskUnits="userSpaceOnUse" x="0" y="0" width="77" height="82">
<rect width="77" height="82" fill="white"/>
</mask>
<g mask="url(#mask2_3441_4171)">
<path fill-rule="evenodd" clip-rule="evenodd" d="M72.625 20.6464C72.625 20.8805 72.6154 21.1123 72.5966 21.3415C74.6322 24.1458 75.8333 27.5999 75.8333 31.3357C75.8333 33.4318 75.4552 35.4391 74.7637 37.2928C74.8912 37.8736 74.9583 38.4772 74.9583 39.0964C74.9583 41.9629 73.5192 44.4919 71.3268 45.9947C68.7859 51.189 63.465 54.7643 57.3125 54.7643C56.7399 54.7643 56.1744 54.7333 55.6178 54.673C53.7787 56.1938 51.4227 57.1071 48.8542 57.1071C47.6822 57.1071 46.5545 56.917 45.5 56.5658V52.8996C50.6309 50.4622 54.2894 45.4285 54.7777 39.4962C56.4603 39.2418 57.75 37.7893 57.75 36.0357V32.2C57.75 30.4658 56.4887 29.0261 54.8333 28.7484V26.8762C54.8333 25.2791 54.6041 23.7355 54.1767 22.2765L54.5863 26.1213L51.2787 19.0927L38.1141 13.375L29.3309 16.4669L23.0606 22.38L23.0469 21.573C22.4763 23.2358 22.1667 25.0199 22.1667 26.8762V28.7484C20.5113 29.0261 19.25 30.4657 19.25 32.2V36.0357C19.25 37.7893 20.5397 39.2418 22.2223 39.4962C22.7106 45.4285 26.3691 50.4622 31.5 52.8996V56.0982C30.1278 56.7454 28.5955 57.1071 26.9792 57.1071C24.4107 57.1071 22.0546 56.1938 20.2155 54.673C19.6589 54.7333 19.0935 54.7643 18.5208 54.7643C12.3683 54.7643 7.04741 51.189 4.50657 45.9947C2.31416 44.4919 0.875 41.9629 0.875 39.0964C0.875 38.4772 0.94217 37.8736 1.06959 37.2928C0.378114 35.4391 0 33.4318 0 31.3357C0 27.5999 1.20112 24.1458 3.23675 21.3415C3.21793 21.1123 3.20833 20.8805 3.20833 20.6464C3.20833 17.3379 5.1256 14.479 7.90542 13.1287C10.3649 7.81977 15.621 4.08123 21.7729 3.82158C23.2697 2.36257 25.3116 1.46429 27.5625 1.46429C28.2412 1.46429 28.9009 1.54596 29.5324 1.70004C32.3096 0.602701 35.3347 0 38.5 0C41.5176 0 44.4078 0.547771 47.0773 1.54969C47.467 1.49341 47.8655 1.46429 48.2708 1.46429C50.5217 1.46429 52.5636 2.36257 54.0604 3.82158C60.2123 4.08123 65.4685 7.81977 67.9279 13.1287C70.7077 14.479 72.625 17.3379 72.625 20.6464Z" fill="#314756"/>
<mask id="mask3_3441_4171" style="mask-type:luminance" maskUnits="userSpaceOnUse" x="0" y="0" width="76" height="58">
<path fill-rule="evenodd" clip-rule="evenodd" d="M72.625 20.6464C72.625 20.8805 72.6154 21.1123 72.5966 21.3415C74.6322 24.1458 75.8333 27.5999 75.8333 31.3357C75.8333 33.4318 75.4552 35.4391 74.7637 37.2928C74.8912 37.8736 74.9583 38.4772 74.9583 39.0964C74.9583 41.9629 73.5192 44.4919 71.3268 45.9947C68.7859 51.189 63.465 54.7643 57.3125 54.7643C56.7399 54.7643 56.1744 54.7333 55.6178 54.673C53.7787 56.1938 51.4227 57.1071 48.8542 57.1071C47.6822 57.1071 46.5545 56.917 45.5 56.5658V52.8996C50.6309 50.4622 54.2894 45.4285 54.7777 39.4962C56.4603 39.2418 57.75 37.7893 57.75 36.0357V32.2C57.75 30.4658 56.4887 29.0261 54.8333 28.7484V26.8762C54.8333 25.2791 54.6041 23.7355 54.1767 22.2765L54.5863 26.1213L51.2787 19.0927L38.1141 13.375L29.3309 16.4669L23.0606 22.38L23.0469 21.573C22.4763 23.2358 22.1667 25.0199 22.1667 26.8762V28.7484C20.5113 29.0261 19.25 30.4657 19.25 32.2V36.0357C19.25 37.7893 20.5397 39.2418 22.2223 39.4962C22.7106 45.4285 26.3691 50.4622 31.5 52.8996V56.0982C30.1278 56.7454 28.5955 57.1071 26.9792 57.1071C24.4107 57.1071 22.0546 56.1938 20.2155 54.673C19.6589 54.7333 19.0935 54.7643 18.5208 54.7643C12.3683 54.7643 7.04741 51.189 4.50657 45.9947C2.31416 44.4919 0.875 41.9629 0.875 39.0964C0.875 38.4772 0.94217 37.8736 1.06959 37.2928C0.378114 35.4391 0 33.4318 0 31.3357C0 27.5999 1.20112 24.1458 3.23675 21.3415C3.21793 21.1123 3.20833 20.8805 3.20833 20.6464C3.20833 17.3379 5.1256 14.479 7.90542 13.1287C10.3649 7.81977 15.621 4.08123 21.7729 3.82158C23.2697 2.36257 25.3116 1.46429 27.5625 1.46429C28.2412 1.46429 28.9009 1.54596 29.5324 1.70004C32.3096 0.602701 35.3347 0 38.5 0C41.5176 0 44.4078 0.547771 47.0773 1.54969C47.467 1.49341 47.8655 1.46429 48.2708 1.46429C50.5217 1.46429 52.5636 2.36257 54.0604 3.82158C60.2123 4.08123 65.4685 7.81977 67.9279 13.1287C70.7077 14.479 72.625 17.3379 72.625 20.6464Z" fill="white"/>
</mask>
<g mask="url(#mask3_3441_4171)">
<rect width="77" height="82" fill="#2C1B18"/>
</g>
<path fill-rule="evenodd" clip-rule="evenodd" d="M54.6492 28.986C54.7705 28.2387 54.8333 27.4737 54.8333 26.695C54.8333 18.2599 47.4554 11.4219 38.3542 11.4219C29.253 11.4219 21.875 18.2599 21.875 26.695C21.875 27.4737 21.9379 28.2387 22.0592 28.986C23.2518 21.6377 30.0931 16.0038 38.3542 16.0038C46.6152 16.0038 53.4565 21.6377 54.6492 28.986Z" fill="#92D9FF"/>
<g filter="url(#filter0_d_3441_4171)">
<path fill-rule="evenodd" clip-rule="evenodd" d="M29.4581 39.8286C25.5921 39.8286 22.4581 36.6818 22.4581 32.8001C22.4581 32.0869 22.5639 31.3986 22.7605 30.7501H20.8569C20.4525 30.7501 20.1248 30.4223 20.1248 30.0179C20.1248 29.6136 20.4525 29.2858 20.8569 29.2858H23.1843C23.2519 29.2858 23.3173 29.2949 23.3795 29.3121C24.586 27.1967 26.8563 25.7715 29.4581 25.7715C32.1858 25.7715 34.5491 27.338 35.7043 29.624C36.3102 28.7116 37.3183 28.1143 38.4596 28.1143C39.6299 28.1143 40.6601 28.7423 41.2603 29.694C42.4023 27.3701 44.7859 25.7715 47.5414 25.7715C50.1432 25.7715 52.4135 27.1967 53.62 29.3121C53.6822 29.2949 53.7476 29.2858 53.8152 29.2858H56.1426C56.547 29.2858 56.8748 29.6136 56.8748 30.0179C56.8748 30.4223 56.547 30.7501 56.1426 30.7501H54.239C54.4356 31.3986 54.5414 32.0869 54.5414 32.8001C54.5414 36.6818 51.4074 39.8286 47.5414 39.8286C43.6754 39.8286 40.5414 36.6818 40.5414 32.8001C40.5414 32.3836 40.5775 31.9757 40.6467 31.5792C40.622 30.2977 39.6412 29.2858 38.4596 29.2858C37.3697 29.2858 36.4507 30.1467 36.2953 31.286C36.4019 31.7737 36.4581 32.2803 36.4581 32.8001C36.4581 36.6818 33.3241 39.8286 29.4581 39.8286ZM29.4581 38.6572C32.6797 38.6572 35.2914 36.0349 35.2914 32.8001C35.2914 29.5652 32.6797 26.9429 29.4581 26.9429C26.2364 26.9429 23.6248 29.5652 23.6248 32.8001C23.6248 36.0349 26.2364 38.6572 29.4581 38.6572ZM53.3748 32.8001C53.3748 36.0349 50.7631 38.6572 47.5414 38.6572C44.3198 38.6572 41.7081 36.0349 41.7081 32.8001C41.7081 29.5652 44.3198 26.9429 47.5414 26.9429C50.7631 26.9429 53.3748 29.5652 53.3748 32.8001Z" fill="#252C2F"/>
</g>
</g>
<defs>
<filter id="filter0_d_3441_4171" x="20.1248" y="25.7715" width="36.75" height="16.0566" filterUnits="userSpaceOnUse" color-interpolation-filters="sRGB">
<feFlood flood-opacity="0" result="BackgroundImageFix"/>
<feColorMatrix in="SourceAlpha" type="matrix" values="0 0 0 0 0 0 0 0 0 0 0 0 0 0 0 0 0 0 127 0" result="hardAlpha"/>
<feOffset dy="2"/>
<feColorMatrix type="matrix" values="0 0 0 0 0 0 0 0 0 0 0 0 0 0 0 0 0 0 0.1 0"/>
<feBlend mode="normal" in2="BackgroundImageFix" result="effect1_dropShadow_3441_4171"/>
<feBlend mode="normal" in="SourceGraphic" in2="effect1_dropShadow_3441_4171" result="shape"/>
</filter>
</defs>
</svg>
