<svg width="92" height="98" viewBox="0 0 92 98" fill="none" xmlns="http://www.w3.org/2000/svg">
<path fill-rule="evenodd" clip-rule="evenodd" d="M45.9999 12.5996C35.2219 12.5996 26.4847 21.3368 26.4847 32.1148V34.3574C24.5069 34.6892 22.9999 36.4093 22.9999 38.4814V43.4178C22.9999 45.5241 24.5571 47.2668 26.5832 47.5571C27.2794 54.4927 31.607 60.3574 37.6362 63.2216V69.71C22.8484 70.6704 11.1514 82.969 11.1514 97.9996H80.8483C80.8483 82.969 69.1513 70.6704 54.3635 69.71V63.2216C60.3927 60.3574 64.7203 54.4927 65.4165 47.5571C67.4426 47.2668 68.9999 45.5241 68.9999 43.4178V38.4814C68.9999 36.4093 67.4928 34.6892 65.515 34.3574V32.1148C65.515 21.3368 56.7778 12.5996 45.9999 12.5996Z" fill="#D0C6AC"/>
<mask id="mask0_3441_4523" style="mask-type:luminance" maskUnits="userSpaceOnUse" x="11" y="12" width="70" height="86">
<path fill-rule="evenodd" clip-rule="evenodd" d="M45.9999 12.5996C35.2219 12.5996 26.4847 21.3368 26.4847 32.1148V34.3574C24.5069 34.6892 22.9999 36.4093 22.9999 38.4814V43.4178C22.9999 45.5241 24.5571 47.2668 26.5832 47.5571C27.2794 54.4927 31.607 60.3574 37.6362 63.2216V69.71C22.8484 70.6704 11.1514 82.969 11.1514 97.9996H80.8483C80.8483 82.969 69.1513 70.6704 54.3635 69.71V63.2216C60.3927 60.3574 64.7203 54.4927 65.4165 47.5571C67.4426 47.2668 68.9999 45.5241 68.9999 43.4178V38.4814C68.9999 36.4093 67.4928 34.6892 65.515 34.3574V32.1148C65.515 21.3368 56.7778 12.5996 45.9999 12.5996Z" fill="white"/>
</mask>
<g mask="url(#mask0_3441_4523)">
<rect y="12.5996" width="92" height="85.4" fill="#D08B5B"/>
<path fill-rule="evenodd" clip-rule="evenodd" d="M26.4849 45.584V48.384C26.4849 59.1619 35.2221 67.8991 46 67.8991C56.7779 67.8991 65.5152 59.1619 65.5152 48.384V45.584C65.5152 56.3619 56.7779 65.0991 46 65.0991C35.2221 65.0991 26.4849 56.3619 26.4849 45.584Z" fill="black" fill-opacity="0.1"/>
</g>
<path fill-rule="evenodd" clip-rule="evenodd" d="M45.9999 79.4678C51.1964 79.4678 55.4089 75.5503 55.4089 70.7178C55.4089 70.4108 55.3919 70.1075 55.3588 69.8086C69.6714 71.2343 80.8483 83.3117 80.8483 97.9997H11.1514C11.1514 83.3117 22.3283 71.2343 36.6409 69.8086C36.6078 70.1075 36.5908 70.4108 36.5908 70.7178C36.5908 75.5503 40.8034 79.4678 45.9999 79.4678Z" fill="#E6E6E6"/>
<mask id="mask1_3441_4523" style="mask-type:luminance" maskUnits="userSpaceOnUse" x="11" y="69" width="70" height="29">
<path fill-rule="evenodd" clip-rule="evenodd" d="M45.9999 79.4678C51.1964 79.4678 55.4089 75.5503 55.4089 70.7178C55.4089 70.4108 55.3919 70.1075 55.3588 69.8086C69.6714 71.2343 80.8483 83.3117 80.8483 97.9997H11.1514C11.1514 83.3117 22.3283 71.2343 36.6409 69.8086C36.6078 70.1075 36.5908 70.4108 36.5908 70.7178C36.5908 75.5503 40.8034 79.4678 45.9999 79.4678Z" fill="white"/>
</mask>
<g mask="url(#mask1_3441_4523)">
<rect y="59.5" width="92" height="38.5" fill="#3C4F5C"/>
</g>
<path fill-rule="evenodd" clip-rule="evenodd" d="M37.6366 67.0508C35.2783 68.6617 33.8032 70.9597 33.8032 73.5105C33.8032 76.0999 35.3232 78.4288 37.744 80.0428L39.8741 78.3575L41.4699 78.4735L41.1214 77.3706L41.1485 77.3492C39.0227 76.2493 37.6366 74.4459 37.6366 72.4076V67.0508ZM54.3638 72.4076C54.3638 74.4459 52.9777 76.2493 50.8519 77.3492L50.879 77.3706L50.5305 78.4735L52.1263 78.3575L54.0951 79.9153C56.4069 78.3073 57.8487 76.0325 57.8487 73.5105C57.8487 71.0878 56.518 68.8931 54.3638 67.2986V72.4076Z" fill="#F2F2F2"/>
<path fill-rule="evenodd" clip-rule="evenodd" d="M41.1211 52.1484C41.1211 54.8546 43.3054 57.0484 45.9999 57.0484V57.0484C48.6944 57.0484 50.8787 54.8546 50.8787 52.1484" fill="black" fill-opacity="0.7"/>
<path fill-rule="evenodd" clip-rule="evenodd" d="M41.8184 45.5C41.8184 47.0464 43.6906 48.3 46.0002 48.3V48.3C48.3097 48.3 50.182 47.0464 50.182 45.5" fill="black" fill-opacity="0.16"/>
<ellipse cx="36.9395" cy="39.1996" rx="2.09091" ry="2.1" fill="black" fill-opacity="0.6"/>
<ellipse cx="55.0606" cy="39.1996" rx="2.09091" ry="2.1" fill="black" fill-opacity="0.6"/>
<path d="M31.9316 34.7043C33.2959 32.7762 37.0361 31.6951 40.2579 32.4897C40.6317 32.5819 41.0092 32.3523 41.101 31.9768C41.1928 31.6014 40.9642 31.2223 40.5904 31.1301C36.8488 30.2073 32.5177 31.4592 30.7954 33.8933C30.5724 34.2084 30.646 34.6454 30.9598 34.8694C31.2735 35.0933 31.7087 35.0194 31.9316 34.7043Z" fill="black" fill-opacity="0.6"/>
<path d="M60.0684 34.7043C58.7041 32.7762 54.9639 31.6951 51.7421 32.4897C51.3683 32.5819 50.9908 32.3523 50.899 31.9768C50.8072 31.6014 51.0358 31.2223 51.4096 31.1301C55.1512 30.2073 59.4823 31.4592 61.2046 33.8933C61.4276 34.2084 61.354 34.6454 61.0402 34.8694C60.7265 35.0933 60.2913 35.0194 60.0684 34.7043Z" fill="black" fill-opacity="0.6"/>
<mask id="mask2_3441_4523" style="mask-type:luminance" maskUnits="userSpaceOnUse" x="0" y="0" width="92" height="98">
<rect width="92" height="98" fill="white"/>
</mask>
<g mask="url(#mask2_3441_4523)">
<path fill-rule="evenodd" clip-rule="evenodd" d="M63.6608 13.6321C65.5448 11.8995 65.9983 8.38654 64.9285 6.10726C63.6153 3.30885 60.9501 2.95826 58.396 4.18903C55.9888 5.34925 53.8458 5.73575 51.2095 5.17361C48.68 4.63424 46.2803 3.68292 43.6659 3.52669C39.3707 3.27002 35.1978 4.8701 32.2704 8.09524C31.7119 8.71051 31.2618 9.41401 30.8364 10.127C30.4961 10.6976 30.1124 11.3097 29.9676 11.9673C29.8987 12.28 30.0269 13.0515 29.8719 13.3077C29.7042 13.5843 29.0718 13.8381 28.8022 14.0434C28.2563 14.4594 27.7832 14.9289 27.3457 15.4599C26.4166 16.5874 25.9052 17.7652 25.4751 19.16C24.0453 23.7957 23.9241 29.3094 25.7725 33.8614C26.0189 34.4684 26.7824 35.7345 27.2313 34.4347C27.32 34.1778 27.1148 33.3168 27.1152 33.0576C27.1168 32.1055 27.6401 25.8025 29.9195 22.2716C30.6615 21.1222 34.0919 16.8183 34.7925 16.7838C35.1638 17.3762 38.9325 21.1619 48.712 20.7182C53.1245 20.518 56.5178 18.5269 57.3326 17.6638C57.6911 19.6003 61.8603 22.4994 62.4956 23.6923C64.3308 27.1382 64.7379 34.2985 65.4384 34.2851C66.139 34.2716 66.6419 32.4519 66.786 32.1045C67.8564 29.5231 68.0387 26.2832 67.9245 23.509C67.7756 19.9382 66.3081 16.0797 63.6608 13.6321Z" fill="#28354B"/>
<mask id="mask3_3441_4523" style="mask-type:luminance" maskUnits="userSpaceOnUse" x="24" y="3" width="44" height="32">
<path fill-rule="evenodd" clip-rule="evenodd" d="M63.6608 13.6321C65.5448 11.8995 65.9983 8.38654 64.9285 6.10726C63.6153 3.30885 60.9501 2.95826 58.396 4.18903C55.9888 5.34925 53.8458 5.73575 51.2095 5.17361C48.68 4.63424 46.2803 3.68292 43.6659 3.52669C39.3707 3.27002 35.1978 4.8701 32.2704 8.09524C31.7119 8.71051 31.2618 9.41401 30.8364 10.127C30.4961 10.6976 30.1124 11.3097 29.9676 11.9673C29.8987 12.28 30.0269 13.0515 29.8719 13.3077C29.7042 13.5843 29.0718 13.8381 28.8022 14.0434C28.2563 14.4594 27.7832 14.9289 27.3457 15.4599C26.4166 16.5874 25.9052 17.7652 25.4751 19.16C24.0453 23.7957 23.9241 29.3094 25.7725 33.8614C26.0189 34.4684 26.7824 35.7345 27.2313 34.4347C27.32 34.1778 27.1148 33.3168 27.1152 33.0576C27.1168 32.1055 27.6401 25.8025 29.9195 22.2716C30.6615 21.1222 34.0919 16.8183 34.7925 16.7838C35.1638 17.3762 38.9325 21.1619 48.712 20.7182C53.1245 20.518 56.5178 18.5269 57.3326 17.6638C57.6911 19.6003 61.8603 22.4994 62.4956 23.6923C64.3308 27.1382 64.7379 34.2985 65.4384 34.2851C66.139 34.2716 66.6419 32.4519 66.786 32.1045C67.8564 29.5231 68.0387 26.2832 67.9245 23.509C67.7756 19.9382 66.3081 16.0797 63.6608 13.6321Z" fill="white"/>
</mask>
<g mask="url(#mask3_3441_4523)">
<rect x="-0.000488281" width="92" height="98" fill="#724133"/>
</g>
<g filter="url(#filter0_d_3441_4523)">
<path fill-rule="evenodd" clip-rule="evenodd" d="M34.2354 46.5492H35.1965C40.3266 46.5492 43.9086 43.5982 43.9086 39.3742C43.9086 35.7437 43.2754 32.1992 35.7088 32.1992H34.6842C27.1176 32.1992 26.4844 35.7437 26.4844 39.3742C26.4844 43.8668 29.3819 46.5492 34.2354 46.5492ZM27.8783 39.7248C27.8783 36.6936 27.8783 34.2992 34.6338 34.2992H35.7592C42.5147 34.2992 42.5147 36.6936 42.5147 39.7248C42.5147 42.9187 39.5055 45.1492 35.1965 45.1492H34.1409C28.9643 45.1492 27.8783 42.1994 27.8783 39.7248Z" fill="#252C2F"/>
<path fill-rule="evenodd" clip-rule="evenodd" d="M55.8414 46.5492H56.8025C61.9326 46.5492 65.5146 43.5982 65.5146 39.3742C65.5146 35.7437 64.8814 32.1992 57.3148 32.1992H56.2902C48.7235 32.1992 48.0903 35.7437 48.0903 39.3742C48.0903 43.8668 50.9879 46.5492 55.8414 46.5492ZM49.4843 39.7248C49.4843 36.6936 49.4843 34.2992 56.2398 34.2992H57.3651C64.1206 34.2992 64.1206 36.6936 64.1206 39.7248C64.1206 42.9187 61.1114 45.1492 56.8025 45.1492H55.7469C50.5714 45.1492 49.4843 42.1994 49.4843 39.7248Z" fill="#252C2F"/>
<path d="M24.3778 34.2193C24.6187 33.9829 27.2545 32.1992 34.6739 32.1992C40.8948 32.1992 42.2117 32.8477 44.205 33.8274L44.351 33.8997C44.4895 33.9489 45.1982 34.1907 46.0272 34.2172C46.7825 34.1847 47.4285 33.9791 47.6172 33.9132C49.8924 32.8019 52.1194 32.1992 57.3254 32.1992C64.7448 32.1992 67.3806 33.9829 67.6216 34.2193C68.1909 34.2193 68.6512 34.6707 68.6512 35.2293V36.2393C68.6512 36.7979 68.1909 37.2493 67.6216 37.2493C67.6216 37.2493 65.2165 37.2493 65.2165 38.2594C65.2165 39.2694 64.5327 36.7979 64.5327 36.2393V35.2556C63.277 34.7729 61.0293 33.8744 57.3254 33.8744C53.1988 33.8744 51.1437 34.6093 49.3808 35.3391L49.4005 35.3869L49.3996 36.082L48.6269 37.9545L47.6726 37.5755C47.5873 37.5417 47.4034 37.4809 47.1484 37.4177C46.4375 37.2416 45.7066 37.188 45.0602 37.3212C44.823 37.3701 44.603 37.4435 44.4011 37.5426L43.4803 37.9945L42.559 36.1879L42.5999 35.3848L42.628 35.3166C41.1076 34.6051 39.7058 33.8744 34.6739 33.8744C30.9703 33.8744 28.7225 34.7726 27.4666 35.2552V36.2393C27.4666 36.7979 26.437 39.2694 26.437 38.2594C26.437 37.2493 24.3778 37.2493 24.3778 37.2493C23.8094 37.2493 23.3481 36.7979 23.3481 36.2393V35.2293C23.3481 34.6707 23.8094 34.2193 24.3778 34.2193Z" fill="#252C2F"/>
</g>
</g>
<defs>
<filter id="filter0_d_3441_4523" x="23.3481" y="32.1992" width="45.3032" height="16.3496" filterUnits="userSpaceOnUse" color-interpolation-filters="sRGB">
<feFlood flood-opacity="0" result="BackgroundImageFix"/>
<feColorMatrix in="SourceAlpha" type="matrix" values="0 0 0 0 0 0 0 0 0 0 0 0 0 0 0 0 0 0 127 0" result="hardAlpha"/>
<feOffset dy="2"/>
<feColorMatrix type="matrix" values="0 0 0 0 0 0 0 0 0 0 0 0 0 0 0 0 0 0 0.2 0"/>
<feBlend mode="normal" in2="BackgroundImageFix" result="effect1_dropShadow_3441_4523"/>
<feBlend mode="normal" in="SourceGraphic" in2="effect1_dropShadow_3441_4523" result="shape"/>
</filter>
</defs>
</svg>
