<svg width="33" height="33" viewBox="0 0 33 33" fill="none" xmlns="http://www.w3.org/2000/svg">
<g clip-path="url(#clip0_4126_5186)">
<path d="M25.7321 0H7.26786C3.25393 0 0 3.25393 0 7.26786V25.7321C0 29.7461 3.25393 33 7.26786 33H25.7321C29.7461 33 33 29.7461 33 25.7321V7.26786C33 3.25393 29.7461 0 25.7321 0Z" fill="url(#paint0_linear_4126_5186)"/>
<path d="M16.5 5.71094C13.2876 5.71096 10.2068 6.77387 7.93533 8.66587C5.66384 10.5579 4.38772 13.124 4.3877 15.7997C4.39062 17.5401 4.93404 19.2502 5.96512 20.764C6.99621 22.2777 8.4799 23.5435 10.272 24.4384C9.7947 25.507 9.07885 26.509 8.15408 27.403C9.94742 27.0882 11.6309 26.4269 13.0734 25.4705C14.1857 25.7458 15.3397 25.8865 16.5 25.8884C19.7124 25.8884 22.7932 24.8254 25.0646 22.9334C27.3361 21.0414 28.6123 18.4753 28.6123 15.7997C28.6123 13.124 27.3361 10.5579 25.0646 8.66587C22.7932 6.77387 19.7124 5.71096 16.5 5.71094Z" fill="white"/>
</g>
<defs>
<linearGradient id="paint0_linear_4126_5186" x1="16.7619" y1="30.8094" x2="16.7619" y2="4.09545" gradientUnits="userSpaceOnUse">
<stop stop-color="#0CBD2A"/>
<stop offset="1" stop-color="#5BF675"/>
</linearGradient>
<clipPath id="clip0_4126_5186">
<rect width="33" height="33" fill="white"/>
</clipPath>
</defs>
</svg>
