<svg width="15" height="15" viewBox="0 0 15 15" fill="none" xmlns="http://www.w3.org/2000/svg">
<path fill-rule="evenodd" clip-rule="evenodd" d="M13.6604 13.1748C13.6604 13.6606 13.2661 14.0549 12.7804 14.0549H2.22002C1.73424 14.0549 1.33999 13.6606 1.33999 13.1748V6.1346C1.33999 5.64883 1.73424 5.25458 2.22002 5.25458H12.7804C13.2661 5.25458 13.6604 5.64883 13.6604 6.1346V13.1748ZM12.7804 4.37455H8.70847L12.5683 1.71907C12.772 1.57871 12.8301 1.28915 12.6981 1.07267C12.5665 0.85618 12.2941 0.794154 12.09 0.934518C12.09 0.934518 7.86144 3.85401 7.50415 4.06962L2.9104 0.934518C2.70667 0.794154 2.43387 0.85618 2.30231 1.07267C2.1703 1.28915 2.22838 1.57871 2.4321 1.71907L6.29191 4.37455H2.22002C1.24803 4.37455 0.459961 5.16261 0.459961 6.1346V13.1748C0.459961 14.1468 1.24803 14.9349 2.22002 14.9349H12.7804C13.7524 14.9349 14.5404 14.1468 14.5404 13.1748V6.1346C14.5404 5.16261 13.7524 4.37455 12.7804 4.37455ZM12.3403 10.9748H10.5803C10.337 10.9748 10.1403 11.1714 10.1403 11.4148C10.1403 11.6581 10.337 11.8548 10.5803 11.8548H12.3403C12.5837 11.8548 12.7804 11.6581 12.7804 11.4148C12.7804 11.1714 12.5837 10.9748 12.3403 10.9748ZM8.38022 11.8548C8.38022 12.0981 8.18353 12.2948 7.94021 12.2948H3.54006C3.29673 12.2948 3.10005 12.0981 3.10005 11.8548V7.45465C3.10005 7.21176 3.29673 7.01463 3.54006 7.01463H7.94021C8.18353 7.01463 8.38022 7.21176 8.38022 7.45465V11.8548ZM8.38022 6.1346H3.10005C2.61427 6.1346 2.22002 6.52886 2.22002 7.01463V12.2948C2.22002 12.7806 2.61427 13.1748 3.10005 13.1748H8.38022C8.866 13.1748 9.26025 12.7806 9.26025 12.2948V7.01463C9.26025 6.52886 8.866 6.1346 8.38022 6.1346ZM12.3403 12.2948H10.5803C10.337 12.2948 10.1403 12.4915 10.1403 12.7348C10.1403 12.9781 10.337 13.1748 10.5803 13.1748H12.3403C12.5837 13.1748 12.7804 12.9781 12.7804 12.7348C12.7804 12.4915 12.5837 12.2948 12.3403 12.2948ZM11.0203 7.01463H11.9003V7.89466H11.0203V7.01463ZM11.4603 6.1346C10.7312 6.1346 10.1403 6.72554 10.1403 7.45465C10.1403 8.18375 10.7312 8.77469 11.4603 8.77469C12.1894 8.77469 12.7804 8.18375 12.7804 7.45465C12.7804 6.72554 12.1894 6.1346 11.4603 6.1346Z" fill="black"/>
</svg>
