<svg width="42" height="42" viewBox="0 0 42 42" fill="none" xmlns="http://www.w3.org/2000/svg">
<g filter="url(#filter0_d_4127_5197)">
<path d="M4.95459 36.0279L7.28179 27.5473C5.84407 25.0595 5.08889 22.2373 5.09236 19.3653C5.09615 10.3414 12.4538 3 21.4953 3C25.8829 3.00223 30.0011 4.7064 33.0983 7.7999C36.1955 10.8934 37.8996 15.0053 37.8981 19.3785C37.8941 28.4018 30.5353 35.7445 21.4951 35.7445H21.488C18.743 35.7434 16.0457 35.056 13.6499 33.7521L4.95459 36.0279Z" fill="white"/>
</g>
<path d="M21.3659 5.34379C13.6092 5.34379 7.30111 11.6493 7.29835 19.3997C7.29453 22.0462 8.03984 24.6398 9.44811 26.8806L9.78268 27.4124L8.36185 32.5993L13.6842 31.2038L14.1981 31.5082C16.3566 32.7892 18.8315 33.4666 21.3554 33.468H21.3607C29.1114 33.468 35.4195 27.1618 35.4225 19.4109C35.4283 17.5636 35.0677 15.7334 34.3613 14.0263C33.655 12.3192 32.6171 10.7693 31.3076 9.46605C30.0054 8.15572 28.4562 7.11669 26.7497 6.4091C25.0432 5.70151 23.2133 5.33942 21.3659 5.34379Z" fill="url(#paint0_linear_4127_5197)"/>
<path fill-rule="evenodd" clip-rule="evenodd" d="M18.1034 13.0282C17.8296 12.4071 17.5416 12.3945 17.2815 12.3837L16.5815 12.375C16.3379 12.375 15.9422 12.4683 15.6077 12.8417C15.2731 13.2151 14.3293 14.1175 14.3293 15.9529C14.3293 17.7883 15.6381 19.5618 15.8204 19.8109C16.0028 20.0601 18.3469 23.9466 22.0591 25.4419C25.144 26.6846 25.7717 26.4375 26.4416 26.3754C27.1115 26.3133 28.6023 25.473 28.9065 24.6019C29.2106 23.7307 29.2108 22.9844 29.1196 22.8283C29.0285 22.6723 28.7849 22.5796 28.4194 22.3929C28.0539 22.2062 26.2586 21.3038 25.9239 21.1792C25.5892 21.0546 25.3458 20.9927 25.1021 21.3661C24.8583 21.7395 24.1593 22.5794 23.9461 22.8283C23.733 23.0773 23.5202 23.1086 23.1547 22.9221C22.7892 22.7356 21.6131 22.3415 20.2178 21.0707C19.1322 20.0818 18.3993 18.8607 18.186 18.4875C17.9726 18.1143 18.1633 17.9122 18.3465 17.7264C18.5104 17.5592 18.7116 17.2907 18.8946 17.073C19.0775 16.8552 19.1377 16.6996 19.2593 16.451C19.3809 16.2024 19.3203 15.9841 19.2289 15.7976C19.1375 15.6111 18.4279 13.766 18.1034 13.0282Z" fill="white"/>
<defs>
<filter id="filter0_d_4127_5197" x="0.95459" y="0" width="40.9434" height="41.0273" filterUnits="userSpaceOnUse" color-interpolation-filters="sRGB">
<feFlood flood-opacity="0" result="BackgroundImageFix"/>
<feColorMatrix in="SourceAlpha" type="matrix" values="0 0 0 0 0 0 0 0 0 0 0 0 0 0 0 0 0 0 127 0" result="hardAlpha"/>
<feOffset dy="1"/>
<feGaussianBlur stdDeviation="2"/>
<feComposite in2="hardAlpha" operator="out"/>
<feColorMatrix type="matrix" values="0 0 0 0 0.479167 0 0 0 0 0.445226 0 0 0 0 0.445226 0 0 0 0.25 0"/>
<feBlend mode="normal" in2="BackgroundImageFix" result="effect1_dropShadow_4127_5197"/>
<feBlend mode="normal" in="SourceGraphic" in2="effect1_dropShadow_4127_5197" result="shape"/>
</filter>
<linearGradient id="paint0_linear_4127_5197" x1="21.0741" y1="7.03151" x2="21.2167" y2="31.0654" gradientUnits="userSpaceOnUse">
<stop stop-color="#57D163"/>
<stop offset="1" stop-color="#23B33A"/>
</linearGradient>
</defs>
</svg>
